TITLE ""
FILE "LR_black_phrase_C09.mp3" MP3
  TRACK 01 AUDIO
    TITLE "LR_black_phrase_C09_001"
    INDEX 01 00:00:00
  TRACK 02 AUDIO
    TITLE "LR_black_phrase_C09_002"
    INDEX 01 00:00:14
  TRACK 03 AUDIO
    TITLE "LR_black_phrase_C09_003"
    INDEX 01 00:01:49
  TRACK 04 AUDIO
    TITLE "LR_black_phrase_C09_004"
    INDEX 01 00:02:11
  TRACK 05 AUDIO
    TITLE "LR_black_phrase_C09_005"
    INDEX 01 00:03:50
  TRACK 06 AUDIO
    TITLE "LR_black_phrase_C09_006"
    INDEX 01 00:04:49
  TRACK 07 AUDIO
    TITLE "LR_black_phrase_C09_007"
    INDEX 01 00:06:15
  TRACK 08 AUDIO
    TITLE "LR_black_phrase_C09_008"
    INDEX 01 00:06:52
  TRACK 09 AUDIO
    TITLE "LR_black_phrase_C09_009"
    INDEX 01 00:08:57
  TRACK 10 AUDIO
    TITLE "LR_black_phrase_C09_010"
    INDEX 01 00:09:13
  TRACK 11 AUDIO
    TITLE "LR_black_phrase_C09_011"
    INDEX 01 00:11:18
  TRACK 12 AUDIO
    TITLE "LR_black_phrase_C09_012"
    INDEX 01 00:12:21
  TRACK 13 AUDIO
    TITLE "LR_black_phrase_C09_013"
    INDEX 01 00:13:46
  TRACK 14 AUDIO
    TITLE "LR_black_phrase_C09_014"
    INDEX 01 00:14:12
  TRACK 15 AUDIO
    TITLE "LR_black_phrase_C09_015"
    INDEX 01 00:15:33
  TRACK 16 AUDIO
    TITLE "LR_black_phrase_C09_016"
    INDEX 01 00:16:35
  TRACK 17 AUDIO
    TITLE "LR_black_phrase_C09_017"
    INDEX 01 00:17:54
  TRACK 18 AUDIO
    TITLE "LR_black_phrase_C09_018"
    INDEX 01 00:18:18
  TRACK 19 AUDIO
    TITLE "LR_black_phrase_C09_019"
    INDEX 01 00:20:21
  TRACK 20 AUDIO
    TITLE "LR_black_phrase_C09_020"
    INDEX 01 00:20:50
  TRACK 21 AUDIO
    TITLE "LR_black_phrase_C09_021"
    INDEX 01 00:22:53
  TRACK 22 AUDIO
    TITLE "LR_black_phrase_C09_022"
    INDEX 01 00:23:54
  TRACK 23 AUDIO
    TITLE "LR_black_phrase_C09_023"
    INDEX 01 00:25:26
  TRACK 24 AUDIO
    TITLE "LR_black_phrase_C09_024"
    INDEX 01 00:25:59
  TRACK 25 AUDIO
    TITLE "LR_black_phrase_C09_025"
    INDEX 01 00:26:59
  TRACK 26 AUDIO
    TITLE "LR_black_phrase_C09_026"
    INDEX 01 00:27:58
  TRACK 27 AUDIO
    TITLE "LR_black_phrase_C09_027"
    INDEX 01 00:30:23
  TRACK 28 AUDIO
    TITLE "LR_black_phrase_C09_028"
    INDEX 01 00:30:56
  TRACK 29 AUDIO
    TITLE "LR_black_phrase_C09_029"
    INDEX 01 00:33:33
  TRACK 30 AUDIO
    TITLE "LR_black_phrase_C09_030"
    INDEX 01 00:33:59
  TRACK 31 AUDIO
    TITLE "LR_black_phrase_C09_031"
    INDEX 01 00:36:37
  TRACK 32 AUDIO
    TITLE "LR_black_phrase_C09_032"
    INDEX 01 00:37:37
  TRACK 33 AUDIO
    TITLE "LR_black_phrase_C09_033"
    INDEX 01 00:38:58
  TRACK 34 AUDIO
    TITLE "LR_black_phrase_C09_034"
    INDEX 01 00:39:20
  TRACK 35 AUDIO
    TITLE "LR_black_phrase_C09_035"
    INDEX 01 00:41:70
  TRACK 36 AUDIO
    TITLE "LR_black_phrase_C09_036"
    INDEX 01 00:42:69
  TRACK 37 AUDIO
    TITLE "LR_black_phrase_C09_037"
    INDEX 01 00:46:14
  TRACK 38 AUDIO
    TITLE "LR_black_phrase_C09_038"
    INDEX 01 00:46:50
  TRACK 39 AUDIO
    TITLE "LR_black_phrase_C09_039"
    INDEX 01 00:49:36
  TRACK 40 AUDIO
    TITLE "LR_black_phrase_C09_040"
    INDEX 01 00:49:58
  TRACK 41 AUDIO
    TITLE "LR_black_phrase_C09_041"
    INDEX 01 00:52:40
  TRACK 42 AUDIO
    TITLE "LR_black_phrase_C09_042"
    INDEX 01 00:53:44
  TRACK 43 AUDIO
    TITLE "LR_black_phrase_C09_043"
    INDEX 01 00:54:65
  TRACK 44 AUDIO
    TITLE "LR_black_phrase_C09_044"
    INDEX 01 00:55:33
  TRACK 45 AUDIO
    TITLE "LR_black_phrase_C09_045"
    INDEX 01 00:56:62
  TRACK 46 AUDIO
    TITLE "LR_black_phrase_C09_046"
    INDEX 01 00:57:59
  TRACK 47 AUDIO
    TITLE "LR_black_phrase_C09_047"
    INDEX 01 01:00:32
  TRACK 48 AUDIO
    TITLE "LR_black_phrase_C09_048"
    INDEX 01 01:00:71
  TRACK 49 AUDIO
    TITLE "LR_black_phrase_C09_049"
    INDEX 01 01:03:30
  TRACK 50 AUDIO
    TITLE "LR_black_phrase_C09_050"
    INDEX 01 01:03:60
  TRACK 51 AUDIO
    TITLE "LR_black_phrase_C09_051"
    INDEX 01 01:06:19
  TRACK 52 AUDIO
    TITLE "LR_black_phrase_C09_052"
    INDEX 01 01:07:22
  TRACK 53 AUDIO
    TITLE "LR_black_phrase_C09_053"
    INDEX 01 01:08:37
  TRACK 54 AUDIO
    TITLE "LR_black_phrase_C09_054"
    INDEX 01 01:09:02
  TRACK 55 AUDIO
    TITLE "LR_black_phrase_C09_055"
    INDEX 01 01:11:34
  TRACK 56 AUDIO
    TITLE "LR_black_phrase_C09_056"
    INDEX 01 01:12:37
  TRACK 57 AUDIO
    TITLE "LR_black_phrase_C09_057"
    INDEX 01 01:14:30
  TRACK 58 AUDIO
    TITLE "LR_black_phrase_C09_058"
    INDEX 01 01:14:69
  TRACK 59 AUDIO
    TITLE "LR_black_phrase_C09_059"
    INDEX 01 01:17:05
  TRACK 60 AUDIO
    TITLE "LR_black_phrase_C09_060"
    INDEX 01 01:17:34
  TRACK 61 AUDIO
    TITLE "LR_black_phrase_C09_061"
    INDEX 01 01:19:45
  TRACK 62 AUDIO
    TITLE "LR_black_phrase_C09_062"
    INDEX 01 01:20:45
  TRACK 63 AUDIO
    TITLE "LR_black_phrase_C09_063"
    INDEX 01 01:21:71
  TRACK 64 AUDIO
    TITLE "LR_black_phrase_C09_064"
    INDEX 01 01:22:30
  TRACK 65 AUDIO
    TITLE "LR_black_phrase_C09_065"
    INDEX 01 01:24:17
  TRACK 66 AUDIO
    TITLE "LR_black_phrase_C09_066"
    INDEX 01 01:25:16
  TRACK 67 AUDIO
    TITLE "LR_black_phrase_C09_067"
    INDEX 01 01:28:09
  TRACK 68 AUDIO
    TITLE "LR_black_phrase_C09_068"
    INDEX 01 01:28:42
  TRACK 69 AUDIO
    TITLE "LR_black_phrase_C09_069"
    INDEX 01 01:31:25
  TRACK 70 AUDIO
    TITLE "LR_black_phrase_C09_070"
    INDEX 01 01:31:44
  TRACK 71 AUDIO
    TITLE "LR_black_phrase_C09_071"
    INDEX 01 01:34:27
  TRACK 72 AUDIO
    TITLE "LR_black_phrase_C09_072"
    INDEX 01 01:35:23
  TRACK 73 AUDIO
    TITLE "LR_black_phrase_C09_073"
    INDEX 01 01:36:48
  TRACK 74 AUDIO
    TITLE "LR_black_phrase_C09_074"
    INDEX 01 01:37:10
  TRACK 75 AUDIO
    TITLE "LR_black_phrase_C09_075"
    INDEX 01 01:39:64
  TRACK 76 AUDIO
    TITLE "LR_black_phrase_C09_076"
    INDEX 01 01:40:63
  TRACK 77 AUDIO
    TITLE "LR_black_phrase_C09_077"
    INDEX 01 01:43:12
  TRACK 78 AUDIO
    TITLE "LR_black_phrase_C09_078"
    INDEX 01 01:43:48
  TRACK 79 AUDIO
    TITLE "LR_black_phrase_C09_079"
    INDEX 01 01:45:52
  TRACK 80 AUDIO
    TITLE "LR_black_phrase_C09_080"
    INDEX 01 01:45:72
  TRACK 81 AUDIO
    TITLE "LR_black_phrase_C09_081"
    INDEX 01 01:48:02
  TRACK 82 AUDIO
    TITLE "LR_black_phrase_C09_082"
    INDEX 01 01:49:01
  TRACK 83 AUDIO
    TITLE "LR_black_phrase_C09_083"
    INDEX 01 01:50:14
  TRACK 84 AUDIO
    TITLE "LR_black_phrase_C09_084"
    INDEX 01 01:50:59
  TRACK 85 AUDIO
    TITLE "LR_black_phrase_C09_085"
    INDEX 01 01:53:50
  TRACK 86 AUDIO
    TITLE "LR_black_phrase_C09_086"
    INDEX 01 01:54:49
  TRACK 87 AUDIO
    TITLE "LR_black_phrase_C09_087"
    INDEX 01 01:56:52
  TRACK 88 AUDIO
    TITLE "LR_black_phrase_C09_088"
    INDEX 01 01:57:16
  TRACK 89 AUDIO
    TITLE "LR_black_phrase_C09_089"
    INDEX 01 01:58:71
  TRACK 90 AUDIO
    TITLE "LR_black_phrase_C09_090"
    INDEX 01 01:59:25
  TRACK 91 AUDIO
    TITLE "LR_black_phrase_C09_091"
    INDEX 01 02:01:08
  TRACK 92 AUDIO
    TITLE "LR_black_phrase_C09_092"
    INDEX 01 02:02:08
  TRACK 93 AUDIO
    TITLE "LR_black_phrase_C09_093"
    INDEX 01 02:03:42
  TRACK 94 AUDIO
    TITLE "LR_black_phrase_C09_094"
    INDEX 01 02:04:12
  TRACK 95 AUDIO
    TITLE "LR_black_phrase_C09_095"
    INDEX 01 02:05:49
  TRACK 96 AUDIO
    TITLE "LR_black_phrase_C09_096"
    INDEX 01 02:06:49
  TRACK 97 AUDIO
    TITLE "LR_black_phrase_C09_097"
    INDEX 01 02:07:56
  TRACK 98 AUDIO
    TITLE "LR_black_phrase_C09_098"
    INDEX 01 02:08:16
  TRACK 99 AUDIO
    TITLE "LR_black_phrase_C09_099"
    INDEX 01 02:10:33
  TRACK 100 AUDIO
    TITLE "LR_black_phrase_C09_100"
    INDEX 01 02:10:62
  TRACK 101 AUDIO
    TITLE "LR_black_phrase_C09_101"
    INDEX 01 02:13:02
  TRACK 102 AUDIO
    TITLE "LR_black_phrase_C09_102"
    INDEX 01 02:14:03
  TRACK 103 AUDIO
    TITLE "LR_black_phrase_C09_103"
    INDEX 01 02:14:74
  TRACK 104 AUDIO
    TITLE "LR_black_phrase_C09_104"
    INDEX 01 02:15:32
  TRACK 105 AUDIO
    TITLE "LR_black_phrase_C09_105"
    INDEX 01 02:16:61
  TRACK 106 AUDIO
    TITLE "LR_black_phrase_C09_106"
    INDEX 01 02:17:60
  TRACK 107 AUDIO
    TITLE "LR_black_phrase_C09_107"
    INDEX 01 02:20:08
  TRACK 108 AUDIO
    TITLE "LR_black_phrase_C09_108"
    INDEX 01 02:20:43
  TRACK 109 AUDIO
    TITLE "LR_black_phrase_C09_109"
    INDEX 01 02:22:55
  TRACK 110 AUDIO
    TITLE "LR_black_phrase_C09_110"
    INDEX 01 02:22:75
  TRACK 111 AUDIO
    TITLE "LR_black_phrase_C09_111"
    INDEX 01 02:25:13
  TRACK 112 AUDIO
    TITLE "LR_black_phrase_C09_112"
    INDEX 01 02:26:06
  TRACK 113 AUDIO
    TITLE "LR_black_phrase_C09_113"
    INDEX 01 02:27:17
  TRACK 114 AUDIO
    TITLE "LR_black_phrase_C09_114"
    INDEX 01 02:27:53
  TRACK 115 AUDIO
    TITLE "LR_black_phrase_C09_115"
    INDEX 01 02:29:26
  TRACK 116 AUDIO
    TITLE "LR_black_phrase_C09_116"
    INDEX 01 02:30:24
  TRACK 117 AUDIO
    TITLE "LR_black_phrase_C09_117"
    INDEX 01 02:32:56
  TRACK 118 AUDIO
    TITLE "LR_black_phrase_C09_118"
    INDEX 01 02:33:16
  TRACK 119 AUDIO
    TITLE "LR_black_phrase_C09_119"
    INDEX 01 02:35:11
  TRACK 120 AUDIO
    TITLE "LR_black_phrase_C09_120"
    INDEX 01 02:35:35
  TRACK 121 AUDIO
    TITLE "LR_black_phrase_C09_121"
    INDEX 01 02:37:28
  TRACK 122 AUDIO
    TITLE "LR_black_phrase_C09_122"
    INDEX 01 02:38:29
  TRACK 123 AUDIO
    TITLE "LR_black_phrase_C09_123"
    INDEX 01 02:39:46
  TRACK 124 AUDIO
    TITLE "LR_black_phrase_C09_124"
    INDEX 01 02:40:08
  TRACK 125 AUDIO
    TITLE "LR_black_phrase_C09_125"
    INDEX 01 02:42:43
  TRACK 126 AUDIO
    TITLE "LR_black_phrase_C09_126"
    INDEX 01 02:43:42
  TRACK 127 AUDIO
    TITLE "LR_black_phrase_C09_127"
    INDEX 01 02:44:75
  TRACK 128 AUDIO
    TITLE "LR_black_phrase_C09_128"
    INDEX 01 02:45:37
  TRACK 129 AUDIO
    TITLE "LR_black_phrase_C09_129"
    INDEX 01 02:47:42
  TRACK 130 AUDIO
    TITLE "LR_black_phrase_C09_130"
    INDEX 01 02:47:71
  TRACK 131 AUDIO
    TITLE "LR_black_phrase_C09_131"
    INDEX 01 02:50:01
  TRACK 132 AUDIO
    TITLE "LR_black_phrase_C09_132"
    INDEX 01 02:51:08
  TRACK 133 AUDIO
    TITLE "LR_black_phrase_C09_133"
    INDEX 01 02:52:23
  TRACK 134 AUDIO
    TITLE "LR_black_phrase_C09_134"
    INDEX 01 02:52:62
  TRACK 135 AUDIO
    TITLE "LR_black_phrase_C09_135"
    INDEX 01 02:55:35
  TRACK 136 AUDIO
    TITLE "LR_black_phrase_C09_136"
    INDEX 01 02:56:35
  TRACK 137 AUDIO
    TITLE "LR_black_phrase_C09_137"
    INDEX 01 02:58:69
  TRACK 138 AUDIO
    TITLE "LR_black_phrase_C09_138"
    INDEX 01 02:59:31
  TRACK 139 AUDIO
    TITLE "LR_black_phrase_C09_139"
    INDEX 01 03:01:40
  TRACK 140 AUDIO
    TITLE "LR_black_phrase_C09_140"
    INDEX 01 03:01:69
  TRACK 141 AUDIO
    TITLE "LR_black_phrase_C09_141"
    INDEX 01 03:04:01
  TRACK 142 AUDIO
    TITLE "LR_black_phrase_C09_142"
    INDEX 01 03:05:04
  TRACK 143 AUDIO
    TITLE "LR_black_phrase_C09_143"
    INDEX 01 03:06:02
  TRACK 144 AUDIO
    TITLE "LR_black_phrase_C09_144"
    INDEX 01 03:06:37
  TRACK 145 AUDIO
    TITLE "LR_black_phrase_C09_145"
    INDEX 01 03:08:01
  TRACK 146 AUDIO
    TITLE "LR_black_phrase_C09_146"
    INDEX 01 03:08:75
  TRACK 147 AUDIO
    TITLE "LR_black_phrase_C09_147"
    INDEX 01 03:11:03
  TRACK 148 AUDIO
    TITLE "LR_black_phrase_C09_148"
    INDEX 01 03:11:34
  TRACK 149 AUDIO
    TITLE "LR_black_phrase_C09_149"
    INDEX 01 03:13:23
  TRACK 150 AUDIO
    TITLE "LR_black_phrase_C09_150"
    INDEX 01 03:13:45
  TRACK 151 AUDIO
    TITLE "LR_black_phrase_C09_151"
    INDEX 01 03:15:32
  TRACK 152 AUDIO
    TITLE "LR_black_phrase_C09_152"
    INDEX 01 03:16:30
  TRACK 153 AUDIO
    TITLE "LR_black_phrase_C09_153"
    INDEX 01 03:17:47
  TRACK 154 AUDIO
    TITLE "LR_black_phrase_C09_154"
    INDEX 01 03:18:13
  TRACK 155 AUDIO
    TITLE "LR_black_phrase_C09_155"
    INDEX 01 03:20:24
  TRACK 156 AUDIO
    TITLE "LR_black_phrase_C09_156"
    INDEX 01 03:21:25
  TRACK 157 AUDIO
    TITLE "LR_black_phrase_C09_157"
    INDEX 01 03:23:20
  TRACK 158 AUDIO
    TITLE "LR_black_phrase_C09_158"
    INDEX 01 03:23:63
  TRACK 159 AUDIO
    TITLE "LR_black_phrase_C09_159"
    INDEX 01 03:25:66
  TRACK 160 AUDIO
    TITLE "LR_black_phrase_C09_160"
    INDEX 01 03:26:18
  TRACK 161 AUDIO
    TITLE "LR_black_phrase_C09_161"
    INDEX 01 03:28:19
  TRACK 162 AUDIO
    TITLE "LR_black_phrase_C09_162"
    INDEX 01 03:29:21
  TRACK 163 AUDIO
    TITLE "LR_black_phrase_C09_163"
    INDEX 01 03:30:43
  TRACK 164 AUDIO
    TITLE "LR_black_phrase_C09_164"
    INDEX 01 03:31:08
  TRACK 165 AUDIO
    TITLE "LR_black_phrase_C09_165"
    INDEX 01 03:32:31
  TRACK 166 AUDIO
    TITLE "LR_black_phrase_C09_166"
    INDEX 01 03:33:20
  TRACK 167 AUDIO
    TITLE "LR_black_phrase_C09_167"
    INDEX 01 03:35:25
  TRACK 168 AUDIO
    TITLE "LR_black_phrase_C09_168"
    INDEX 01 03:35:64
  TRACK 169 AUDIO
    TITLE "LR_black_phrase_C09_169"
    INDEX 01 03:38:21
  TRACK 170 AUDIO
    TITLE "LR_black_phrase_C09_170"
    INDEX 01 03:38:53
  TRACK 171 AUDIO
    TITLE "LR_black_phrase_C09_171"
    INDEX 01 03:41:10
  TRACK 172 AUDIO
    TITLE "LR_black_phrase_C09_172"
    INDEX 01 03:42:15
  TRACK 173 AUDIO
    TITLE "LR_black_phrase_C09_173"
    INDEX 01 03:43:32
  TRACK 174 AUDIO
    TITLE "LR_black_phrase_C09_174"
    INDEX 01 03:44:01
  TRACK 175 AUDIO
    TITLE "LR_black_phrase_C09_175"
    INDEX 01 03:45:49
  TRACK 176 AUDIO
    TITLE "LR_black_phrase_C09_176"
    INDEX 01 03:46:46
  TRACK 177 AUDIO
    TITLE "LR_black_phrase_C09_177"
    INDEX 01 03:49:29
  TRACK 178 AUDIO
    TITLE "LR_black_phrase_C09_178"
    INDEX 01 03:49:70
  TRACK 179 AUDIO
    TITLE "LR_black_phrase_C09_179"
    INDEX 01 03:52:41
  TRACK 180 AUDIO
    TITLE "LR_black_phrase_C09_180"
    INDEX 01 03:52:69
  TRACK 181 AUDIO
    TITLE "LR_black_phrase_C09_181"
    INDEX 01 03:55:40
  TRACK 182 AUDIO
    TITLE "LR_black_phrase_C09_182"
    INDEX 01 03:56:45
  TRACK 183 AUDIO
    TITLE "LR_black_phrase_C09_183"
    INDEX 01 03:57:58
  TRACK 184 AUDIO
    TITLE "LR_black_phrase_C09_184"
    INDEX 01 03:58:20
  TRACK 185 AUDIO
    TITLE "LR_black_phrase_C09_185"
    INDEX 01 04:01:19
  TRACK 186 AUDIO
    TITLE "LR_black_phrase_C09_186"
    INDEX 01 04:02:18
  TRACK 187 AUDIO
    TITLE "LR_black_phrase_C09_187"
    INDEX 01 04:04:40
  TRACK 188 AUDIO
    TITLE "LR_black_phrase_C09_188"
    INDEX 01 04:04:74
  TRACK 189 AUDIO
    TITLE "LR_black_phrase_C09_189"
    INDEX 01 04:07:21
  TRACK 190 AUDIO
    TITLE "LR_black_phrase_C09_190"
    INDEX 01 04:07:39
  TRACK 191 AUDIO
    TITLE "LR_black_phrase_C09_191"
    INDEX 01 04:09:59
  TRACK 192 AUDIO
    TITLE "LR_black_phrase_C09_192"
    INDEX 01 04:10:55
  TRACK 193 AUDIO
    TITLE "LR_black_phrase_C09_193"
    INDEX 01 04:11:60
  TRACK 194 AUDIO
    TITLE "LR_black_phrase_C09_194"
    INDEX 01 04:12:22
  TRACK 195 AUDIO
    TITLE "LR_black_phrase_C09_195"
    INDEX 01 04:14:33
  TRACK 196 AUDIO
    TITLE "LR_black_phrase_C09_196"
    INDEX 01 04:15:32
  TRACK 197 AUDIO
    TITLE "LR_black_phrase_C09_197"
    INDEX 01 04:17:27
  TRACK 198 AUDIO
    TITLE "LR_black_phrase_C09_198"
    INDEX 01 04:17:67
  TRACK 199 AUDIO
    TITLE "LR_black_phrase_C09_199"
    INDEX 01 04:20:10
  TRACK 200 AUDIO
    TITLE "LR_black_phrase_C09_200"
    INDEX 01 04:20:39
  TRACK 201 AUDIO
    TITLE "LR_black_phrase_C09_201"
    INDEX 01 04:22:56
